<svg fill="none" height="24" viewBox="0 0 24 24" width="24" xmlns="http://www.w3.org/2000/svg"><path d="m16.19 2h-8.38c-3.64 0-5.81 2.17-5.81 5.81v8.37c0 3.65 2.17 5.82 5.81 5.82h8.37c3.64 0 5.81-2.17 5.81-5.81v-8.38c.01-3.64-2.16-5.81-5.8-5.81zm-5.16 15.66c.29.29.29.77 0 1.06-.15.15-.34.22-.53.22s-.38-.07-.53-.22l-1.72-1.72-1.72 1.72c-.15.14-.34.22-.53.22s-.38-.07-.53-.22c-.29-.29-.29-.77 0-1.06l1.72-1.72-1.72-1.72c-.29-.29-.29-.77 0-1.06s.77-.29 1.06 0l1.72 1.72 1.72-1.72c.29-.29.77-.29 1.06 0s.29.77 0 1.06l-1.72 1.72zm-.53-8.85h-4.5c-.41 0-.75-.34-.75-.75s.34-.75.75-.75h4.5c.41 0 .75.34.75.75s-.34.75-.75.75zm7.5 9.75h-4.5c-.41 0-.75-.34-.75-.75s.34-.75.75-.75h4.5c.41 0 .75.34.75.75s-.34.75-.75.75zm0-3.75h-4.5c-.41 0-.75-.34-.75-.75s.34-.75.75-.75h4.5c.41 0 .75.34.75.75s-.34.75-.75.75zm0-6h-1.48v1.5c0 .41-.34.75-.75.75s-.75-.34-.75-.75v-1.5h-1.52c-.41 0-.75-.34-.75-.75s.34-.75.75-.75h1.52v-1.5c0-.41.34-.75.75-.75s.75.34.75.75v1.5h1.48c.41 0 .75.34.75.75s-.34.75-.75.75z" fill="#292d32"/></svg>